<?xml version="1.0" standalone="no"?>
<!DOCTYPE svg PUBLIC "-//W3C//DTD SVG 20010904//EN"
 "http://www.w3.org/TR/2001/REC-SVG-20010904/DTD/svg10.dtd">
<svg version="1.0" xmlns="http://www.w3.org/2000/svg"
 width="500.000000pt" height="500.000000pt" viewBox="0 0 500.000000 500.000000"
 preserveAspectRatio="xMidYMid meet">
<metadata>
Created by potrace 1.11, written by Peter Selinger 2001-2013
</metadata>
<g transform="translate(0.000000,500.000000) scale(0.100000,-0.100000)"
fill="#000000" stroke="none">
<path d="M0 2500 l0 -2500 2500 0 2500 0 0 2500 0 2500 -2500 0 -2500 0 0
-2500z m3731 1703 c67 -22 129 -81 155 -149 18 -47 19 -102 24 -1314 5 -1381
1 -1289 63 -1325 22 -13 62 -20 148 -24 186 -9 198 -26 198 -276 1 -182 -10
-223 -70 -266 l-34 -24 -1535 -3 c-1721 -3 -1591 -8 -1678 71 -59 55 -90 120
-103 215 -6 49 -9 386 -7 932 l3 855 28 57 c33 67 80 111 157 147 l55 26 1078
5 c1053 5 1079 5 1093 24 11 16 14 65 14 232 0 211 0 213 -24 241 l-24 28
-1149 5 c-1072 5 -1151 6 -1176 22 -49 33 -52 49 -52 253 0 173 2 193 20 225
13 22 34 39 55 47 27 9 363 12 1371 12 1241 1 1341 0 1390 -16z"/>
<path d="M1953 2553 c-49 -9 -48 -2 -48 -554 l0 -519 28 -27 27 -28 631 -3
c428 -2 643 1 670 8 28 8 43 18 49 36 11 29 12 994 1 1034 -4 15 -21 32 -41
42 -32 17 -84 18 -665 17 -346 -1 -640 -4 -652 -6z"/>
</g>
</svg>
